<svg xmlns="http://www.w3.org/2000/svg" xmlns:xlink="http://www.w3.org/1999/xlink" width="494" zoomAndPan="magnify" viewBox="0 0 370.5 98.999996" height="132" preserveAspectRatio="xMidYMid meet" version="1.0"><defs><g/></defs><g fill="#ff9c8f" fill-opacity="1"><g transform="translate(165.980521, 29.221716)"><g><path d="M 1.03125 0 L 0.875 0 L 0.75 -0.390625 L 0.21875 -0.390625 L 0.09375 0 L -0.0625 0 L 0.390625 -1.34375 L 0.578125 -1.34375 Z M 0.703125 -0.515625 L 0.484375 -1.203125 L 0.25 -0.515625 Z M 0.703125 -0.515625 "/></g></g></g><g fill="#ff9c8f" fill-opacity="1"><g transform="translate(167.596483, 29.221716)"><g><path d="M 0.90625 0 L 0.046875 0 L 0.046875 -1.34375 L 0.1875 -1.34375 L 0.1875 -0.125 L 0.90625 -0.125 Z M 0.90625 0 "/></g></g></g><g fill="#ff9c8f" fill-opacity="1"><g transform="translate(169.212445, 29.221716)"><g><path d="M 0.90625 0 L 0.046875 0 L 0.046875 -1.34375 L 0.1875 -1.34375 L 0.1875 -0.125 L 0.90625 -0.125 Z M 0.90625 0 "/></g></g></g><g fill="#ff9c8f" fill-opacity="1"><g transform="translate(170.828407, 29.221716)"><g/></g></g><g fill="#ff9c8f" fill-opacity="1"><g transform="translate(172.444369, 29.221716)"><g><path d="M 1.03125 0 L 0.875 0 L 0.75 -0.390625 L 0.21875 -0.390625 L 0.09375 0 L -0.0625 0 L 0.390625 -1.34375 L 0.578125 -1.34375 Z M 0.703125 -0.515625 L 0.484375 -1.203125 L 0.25 -0.515625 Z M 0.703125 -0.515625 "/></g></g></g><g fill="#ff9c8f" fill-opacity="1"><g transform="translate(174.060331, 29.221716)"><g><path d="M 0.953125 -0.390625 C 0.953125 -0.253906 0.910156 -0.15625 0.828125 -0.09375 C 0.742188 -0.03125 0.628906 0 0.484375 0 L 0.046875 0 L 0.046875 -1.34375 L 0.453125 -1.34375 C 0.515625 -1.34375 0.570312 -1.335938 0.625 -1.328125 C 0.675781 -1.316406 0.722656 -1.296875 0.765625 -1.265625 C 0.804688 -1.242188 0.835938 -1.210938 0.859375 -1.171875 C 0.890625 -1.128906 0.90625 -1.070312 0.90625 -1 C 0.90625 -0.851562 0.835938 -0.753906 0.703125 -0.703125 C 0.867188 -0.648438 0.953125 -0.546875 0.953125 -0.390625 Z M 0.765625 -1 C 0.765625 -1.039062 0.753906 -1.078125 0.734375 -1.109375 C 0.710938 -1.140625 0.6875 -1.160156 0.65625 -1.171875 C 0.632812 -1.191406 0.601562 -1.203125 0.5625 -1.203125 C 0.519531 -1.210938 0.484375 -1.21875 0.453125 -1.21875 L 0.1875 -1.21875 L 0.1875 -0.765625 L 0.453125 -0.765625 C 0.492188 -0.765625 0.53125 -0.765625 0.5625 -0.765625 C 0.601562 -0.773438 0.640625 -0.785156 0.671875 -0.796875 C 0.703125 -0.816406 0.722656 -0.84375 0.734375 -0.875 C 0.753906 -0.90625 0.765625 -0.945312 0.765625 -1 Z M 0.8125 -0.390625 C 0.8125 -0.472656 0.78125 -0.535156 0.71875 -0.578125 C 0.664062 -0.628906 0.585938 -0.65625 0.484375 -0.65625 L 0.1875 -0.65625 L 0.1875 -0.125 L 0.484375 -0.125 C 0.585938 -0.125 0.664062 -0.144531 0.71875 -0.1875 C 0.78125 -0.226562 0.8125 -0.296875 0.8125 -0.390625 Z M 0.8125 -0.390625 "/></g></g></g><g fill="#ff9c8f" fill-opacity="1"><g transform="translate(175.676293, 29.221716)"><g><path d="M 1 -0.671875 C 1 -0.578125 0.988281 -0.488281 0.96875 -0.40625 C 0.945312 -0.320312 0.914062 -0.25 0.875 -0.1875 C 0.832031 -0.125 0.78125 -0.0703125 0.71875 -0.03125 C 0.65625 0.0078125 0.578125 0.03125 0.484375 0.03125 C 0.390625 0.03125 0.304688 0.0078125 0.234375 -0.03125 C 0.171875 -0.0703125 0.117188 -0.125 0.078125 -0.1875 C 0.0351562 -0.25 0.0078125 -0.320312 0 -0.40625 C -0.0195312 -0.488281 -0.03125 -0.578125 -0.03125 -0.671875 C -0.03125 -0.765625 -0.0195312 -0.851562 0 -0.9375 C 0.0078125 -1.019531 0.0351562 -1.09375 0.078125 -1.15625 C 0.117188 -1.21875 0.171875 -1.265625 0.234375 -1.296875 C 0.304688 -1.335938 0.390625 -1.359375 0.484375 -1.359375 C 0.578125 -1.359375 0.65625 -1.335938 0.71875 -1.296875 C 0.78125 -1.265625 0.832031 -1.21875 0.875 -1.15625 C 0.914062 -1.09375 0.945312 -1.019531 0.96875 -0.9375 C 0.988281 -0.851562 1 -0.765625 1 -0.671875 Z M 0.859375 -0.671875 C 0.859375 -0.753906 0.847656 -0.832031 0.828125 -0.90625 C 0.804688 -0.976562 0.78125 -1.039062 0.75 -1.09375 C 0.71875 -1.144531 0.675781 -1.179688 0.625 -1.203125 C 0.582031 -1.234375 0.535156 -1.25 0.484375 -1.25 C 0.410156 -1.25 0.347656 -1.226562 0.296875 -1.1875 C 0.253906 -1.15625 0.21875 -1.109375 0.1875 -1.046875 C 0.15625 -0.992188 0.132812 -0.929688 0.125 -0.859375 C 0.113281 -0.796875 0.109375 -0.734375 0.109375 -0.671875 C 0.109375 -0.597656 0.113281 -0.523438 0.125 -0.453125 C 0.132812 -0.390625 0.15625 -0.332031 0.1875 -0.28125 C 0.21875 -0.226562 0.253906 -0.179688 0.296875 -0.140625 C 0.347656 -0.109375 0.410156 -0.09375 0.484375 -0.09375 C 0.554688 -0.09375 0.613281 -0.109375 0.65625 -0.140625 C 0.707031 -0.179688 0.75 -0.226562 0.78125 -0.28125 C 0.8125 -0.332031 0.832031 -0.390625 0.84375 -0.453125 C 0.851562 -0.523438 0.859375 -0.597656 0.859375 -0.671875 Z M 0.859375 -0.671875 "/></g></g></g><g fill="#ff9c8f" fill-opacity="1"><g transform="translate(177.292255, 29.221716)"><g><path d="M 1.03125 0 L 0.875 0 L 0.75 -0.390625 L 0.21875 -0.390625 L 0.09375 0 L -0.0625 0 L 0.390625 -1.34375 L 0.578125 -1.34375 Z M 0.703125 -0.515625 L 0.484375 -1.203125 L 0.25 -0.515625 Z M 0.703125 -0.515625 "/></g></g></g><g fill="#ff9c8f" fill-opacity="1"><g transform="translate(178.908217, 29.221716)"><g><path d="M 0.96875 0 L 0.796875 0 L 0.40625 -0.578125 L 0.1875 -0.578125 L 0.1875 0 L 0.046875 0 L 0.046875 -1.34375 L 0.5 -1.34375 C 0.644531 -1.34375 0.753906 -1.3125 0.828125 -1.25 C 0.910156 -1.1875 0.953125 -1.085938 0.953125 -0.953125 C 0.953125 -0.898438 0.941406 -0.847656 0.921875 -0.796875 C 0.898438 -0.753906 0.875 -0.71875 0.84375 -0.6875 C 0.8125 -0.65625 0.769531 -0.628906 0.71875 -0.609375 C 0.675781 -0.597656 0.625 -0.585938 0.5625 -0.578125 Z M 0.8125 -0.953125 C 0.8125 -1.046875 0.78125 -1.113281 0.71875 -1.15625 C 0.664062 -1.195312 0.59375 -1.21875 0.5 -1.21875 L 0.1875 -1.21875 L 0.1875 -0.703125 L 0.5 -0.703125 C 0.59375 -0.703125 0.664062 -0.722656 0.71875 -0.765625 C 0.78125 -0.804688 0.8125 -0.867188 0.8125 -0.953125 Z M 0.8125 -0.953125 "/></g></g></g><g fill="#ff9c8f" fill-opacity="1"><g transform="translate(180.524179, 29.221716)"><g><path d="M 1 -0.671875 C 1 -0.578125 0.988281 -0.488281 0.96875 -0.40625 C 0.957031 -0.332031 0.929688 -0.265625 0.890625 -0.203125 C 0.847656 -0.140625 0.789062 -0.0859375 0.71875 -0.046875 C 0.65625 -0.015625 0.578125 0 0.484375 0 L 0.046875 0 L 0.046875 -1.34375 L 0.484375 -1.34375 C 0.578125 -1.34375 0.65625 -1.320312 0.71875 -1.28125 C 0.789062 -1.25 0.847656 -1.203125 0.890625 -1.140625 C 0.929688 -1.078125 0.957031 -1.003906 0.96875 -0.921875 C 0.988281 -0.847656 1 -0.765625 1 -0.671875 Z M 0.859375 -0.671875 C 0.859375 -0.847656 0.828125 -0.984375 0.765625 -1.078125 C 0.703125 -1.171875 0.609375 -1.21875 0.484375 -1.21875 L 0.1875 -1.21875 L 0.1875 -0.125 L 0.484375 -0.125 C 0.609375 -0.125 0.703125 -0.171875 0.765625 -0.265625 C 0.828125 -0.359375 0.859375 -0.492188 0.859375 -0.671875 Z M 0.859375 -0.671875 "/></g></g></g><g fill="#ff9c8f" fill-opacity="1"><g transform="translate(182.14014, 29.221716)"><g><path d="M 0.578125 -1.34375 L 0.515625 -0.375 L 0.4375 -0.375 L 0.390625 -1.34375 Z M 0.578125 0 L 0.390625 0 L 0.390625 -0.1875 L 0.578125 -0.1875 Z M 0.578125 0 "/></g></g></g><path stroke-linecap="butt" transform="matrix(0.552943, 0, 0, 0.552943, 14.111103, 17.06694)" fill="none" stroke-linejoin="miter" d="M 45.555654 13.993754 L 56.004008 13.993754 C 57.699481 13.993754 58.363541 14.799104 57.989124 16.409803 L 39.402499 100.010764 C 39.11992 101.338885 38.31457 102.002945 36.986449 102.002945 L 25.972937 102.002945 C 24.743719 102.002945 23.938369 101.338885 23.556888 100.010764 L 5.083294 16.409803 C 4.708877 14.799104 5.365873 13.993754 7.06841 13.993754 L 17.516764 13.993754 C 18.844885 13.993754 19.650235 14.657814 19.932814 15.97887 L 31.483225 74.931889 L 43.139604 15.97887 C 43.514021 14.657814 44.319371 13.993754 45.555654 13.993754 Z M 114.639125 15.766936 L 114.639125 26.75219 C 114.639125 28.002602 114.059838 28.63134 112.8942 28.63134 L 85.392211 28.63134 L 85.392211 50.623041 L 106.394886 50.623041 C 107.560524 50.623041 108.13981 51.251779 108.13981 52.50219 L 108.13981 63.381477 C 108.13981 64.631889 107.560524 65.260627 106.394886 65.260627 L 85.392211 65.260627 L 85.392211 87.471326 L 112.8942 87.471326 C 114.059838 87.471326 114.639125 88.064742 114.639125 89.244509 L 114.639125 100.229763 C 114.639125 101.409529 114.059838 102.002945 112.8942 102.002945 L 72.393582 102.002945 C 71.305654 102.002945 70.754625 101.409529 70.754625 100.229763 L 70.754625 15.766936 C 70.754625 14.587169 71.305654 13.993754 72.393582 13.993754 L 112.8942 13.993754 C 114.059838 13.993754 114.639125 14.587169 114.639125 15.766936 Z M 145.34132 13.993754 L 157.640565 13.993754 C 162.854146 13.993754 166.789056 15.336003 169.459427 18.020503 C 172.143926 20.690873 173.486176 24.632848 173.486176 29.839364 L 173.486176 41.495743 C 173.486176 42.67551 172.906889 43.268925 171.741251 43.268925 L 160.303871 43.268925 C 159.11704 43.268925 158.530689 42.67551 158.530689 41.495743 L 158.530689 32.926539 C 158.530689 29.994783 157.061279 28.525373 154.122458 28.525373 L 148.859427 28.525373 C 145.920606 28.525373 144.458261 29.994783 144.458261 32.926539 L 144.458261 48.101024 L 170.639194 56.670229 C 172.539537 57.489707 173.486176 58.853151 173.486176 60.753493 L 173.486176 86.157335 C 173.486176 91.293206 172.143926 95.221052 169.459427 97.947938 C 166.789056 100.646566 162.854146 102.002945 157.640565 102.002945 L 145.34132 102.002945 C 140.205449 102.002945 136.270538 100.646566 133.550716 97.947938 C 130.852088 95.221052 129.495709 91.293206 129.495709 86.157335 L 129.495709 74.606923 C 129.495709 73.441285 130.08206 72.861998 131.240634 72.861998 L 142.685078 72.861998 C 143.864845 72.861998 144.458261 73.441285 144.458261 74.606923 L 144.458261 83.07016 C 144.458261 86.001916 145.920606 87.471326 148.859427 87.471326 L 154.122458 87.471326 C 157.061279 87.471326 158.530689 86.001916 158.530689 83.07016 L 158.530689 68.460832 L 132.448658 59.86337 C 130.484735 59.19931 129.495709 57.849995 129.495709 55.808363 L 129.495709 29.839364 C 129.495709 24.632848 130.852088 20.690873 133.550716 18.020503 C 136.270538 15.336003 140.205449 13.993754 145.34132 13.993754 Z M 187.890634 13.993754 L 228.391252 13.993754 C 229.549825 13.993754 230.136176 14.587169 230.136176 15.766936 L 230.136176 26.75219 C 230.136176 27.931957 229.549825 28.525373 228.391252 28.525373 L 215.632815 28.525373 L 215.632815 100.229763 C 215.632815 101.409529 215.0394 102.002945 213.859633 102.002945 L 202.422253 102.002945 C 201.256615 102.002945 200.670264 101.409529 200.670264 100.229763 L 200.670264 28.525373 L 187.890634 28.525373 C 186.724996 28.525373 186.145709 27.931957 186.145709 26.75219 L 186.145709 15.766936 C 186.145709 14.587169 186.724996 13.993754 187.890634 13.993754 Z M 244.540634 13.993754 L 255.985079 13.993754 C 257.164846 13.993754 257.758261 14.587169 257.758261 15.766936 L 257.758261 100.229763 C 257.758261 101.409529 257.164846 102.002945 255.985079 102.002945 L 244.540634 102.002945 C 243.382061 102.002945 242.79571 101.409529 242.79571 100.229763 L 242.79571 15.766936 C 242.79571 14.587169 243.382061 13.993754 244.540634 13.993754 Z M 316.704215 29.839364 L 316.704215 50.086141 C 316.704215 52.127773 316.040155 53.851504 314.719099 55.243205 C 313.412171 56.641971 311.759085 57.52503 309.773968 57.906511 L 309.773968 58.118445 C 311.759085 58.408089 313.412171 59.26289 314.719099 60.696978 C 316.040155 62.131065 316.704215 63.87599 316.704215 65.931751 L 316.704215 86.157335 C 316.704215 91.293206 315.340772 95.221052 312.62095 97.947938 C 309.915258 100.646566 305.959153 102.002945 300.752638 102.002945 L 274.352706 102.002945 C 273.187068 102.002945 272.607781 101.409529 272.607781 100.229763 L 272.607781 15.766936 C 272.607781 14.587169 273.187068 13.993754 274.352706 13.993754 L 300.752638 13.993754 C 305.959153 13.993754 309.915258 15.336003 312.62095 18.020503 C 315.340772 20.690873 316.704215 24.632848 316.704215 29.839364 Z M 302.094887 46.462067 L 302.094887 32.926539 C 302.094887 29.994783 300.625477 28.525373 297.686657 28.525373 L 287.6763 28.525373 L 287.6763 50.736072 L 297.686657 50.736072 C 300.625477 50.736072 302.094887 49.309049 302.094887 46.462067 Z M 302.094887 83.07016 L 302.094887 69.668857 C 302.094887 66.730037 300.625477 65.260627 297.686657 65.260627 L 287.6763 65.260627 L 287.6763 87.471326 L 297.686657 87.471326 C 300.625477 87.471326 302.094887 86.001916 302.094887 83.07016 Z M 363.230827 13.993754 L 373.354216 13.993754 C 373.947631 13.993754 374.456273 14.219817 374.887206 14.664879 C 375.332268 15.095811 375.558331 15.604453 375.558331 16.197869 L 375.558331 86.157335 C 375.558331 91.293206 374.216081 95.221052 371.524517 97.947938 C 368.861212 100.646566 364.919236 102.002945 359.71272 102.002945 L 347.413475 102.002945 C 342.270539 102.002945 338.342693 100.646566 335.622871 97.947938 C 332.917178 95.221052 331.567864 91.293206 331.567864 86.157335 L 331.567864 16.197869 C 331.567864 15.604453 331.779798 15.095811 332.210731 14.664879 C 332.655793 14.219817 333.178564 13.993754 333.771979 13.993754 L 344.3263 13.993754 C 344.912652 13.993754 345.421294 14.219817 345.852226 14.664879 C 346.304353 15.095811 346.523351 15.604453 346.523351 16.197869 L 346.523351 83.07016 C 346.523351 86.001916 347.992761 87.471326 350.931582 87.471326 L 356.64674 87.471326 C 359.58556 87.471326 361.05497 86.001916 361.05497 83.07016 L 361.05497 16.197869 C 361.05497 15.604453 361.266904 15.095811 361.697837 14.664879 C 362.142899 14.219817 362.658605 13.993754 363.230827 13.993754 Z M 405.377467 87.471326 L 405.377467 15.766936 C 405.377467 14.587169 404.784051 13.993754 403.604284 13.993754 L 392.15984 13.993754 C 391.001267 13.993754 390.414915 14.587169 390.414915 15.766936 L 390.414915 100.229763 C 390.414915 101.409529 391.001267 102.002945 392.15984 102.002945 L 431.5584 102.002945 C 432.724038 102.002945 433.303324 101.409529 433.303324 100.229763 L 433.303324 89.244509 C 433.303324 88.064742 432.724038 87.471326 431.5584 87.471326 Z M 448.166973 86.157335 L 448.166973 29.839364 C 448.166973 24.632848 449.516288 20.690873 452.22198 18.020503 C 454.941802 15.336003 458.876713 13.993754 464.012584 13.993754 L 476.31183 13.993754 C 481.518345 13.993754 485.460321 15.336003 488.130691 18.020503 C 490.81519 20.690873 492.15744 24.632848 492.15744 29.839364 L 492.15744 86.157335 C 492.15744 91.293206 490.81519 95.221052 488.130691 97.947938 C 485.460321 100.646566 481.518345 102.002945 476.31183 102.002945 L 464.012584 102.002945 C 458.876713 102.002945 454.941802 100.646566 452.22198 97.947938 C 449.516288 95.221052 448.166973 91.293206 448.166973 86.157335 Z M 467.177467 87.817485 L 473.570814 87.817485 C 476.509635 87.817485 477.979045 86.35514 477.979045 83.416319 L 477.979045 32.580379 C 477.979045 29.662752 476.509635 28.200407 473.570814 28.200407 L 467.177467 28.200407 C 464.25984 28.200407 462.804559 29.662752 462.804559 32.580379 L 462.804559 83.416319 C 462.804559 86.35514 464.25984 87.817485 467.177467 87.817485 Z M 522.859635 13.993754 L 535.158881 13.993754 C 540.372461 13.993754 544.307372 15.336003 546.977742 18.020503 C 549.662242 20.690873 551.004491 24.632848 551.004491 29.839364 L 551.004491 41.495743 C 551.004491 42.67551 550.425205 43.268925 549.259567 43.268925 L 537.822187 43.268925 C 536.635355 43.268925 536.049004 42.67551 536.049004 41.495743 L 536.049004 32.926539 C 536.049004 29.994783 534.579594 28.525373 531.640774 28.525373 L 526.377742 28.525373 C 523.445986 28.525373 521.976576 29.994783 521.976576 32.926539 L 521.976576 48.101024 L 548.157509 56.670229 C 550.057852 57.489707 551.004491 58.853151 551.004491 60.753493 L 551.004491 86.157335 C 551.004491 91.293206 549.662242 95.221052 546.977742 97.947938 C 544.307372 100.646566 540.372461 102.002945 535.158881 102.002945 L 522.859635 102.002945 C 517.723764 102.002945 513.795918 100.646566 511.069031 97.947938 C 508.370403 95.221052 507.014025 91.293206 507.014025 86.157335 L 507.014025 74.606923 C 507.014025 73.441285 507.600376 72.861998 508.758949 72.861998 L 520.203394 72.861998 C 521.38316 72.861998 521.976576 73.441285 521.976576 74.606923 L 521.976576 83.07016 C 521.976576 86.001916 523.445986 87.471326 526.377742 87.471326 L 531.640774 87.471326 C 534.579594 87.471326 536.049004 86.001916 536.049004 83.07016 L 536.049004 68.460832 L 509.974038 59.86337 C 508.003051 59.19931 507.014025 57.849995 507.014025 55.808363 L 507.014025 29.839364 C 507.014025 24.632848 508.370403 20.690873 511.069031 18.020503 C 513.795918 15.336003 517.723764 13.993754 522.859635 13.993754 Z M 565.86814 86.157335 L 565.86814 29.839364 C 565.86814 24.632848 567.217454 20.690873 569.923147 18.020503 C 572.642969 15.336003 576.570815 13.993754 581.713751 13.993754 L 594.012996 13.993754 C 599.219512 13.993754 603.161488 15.336003 605.824793 18.020503 C 608.516357 20.690873 609.858607 24.632848 609.858607 29.839364 L 609.858607 86.157335 C 609.858607 91.293206 608.516357 95.221052 605.824793 97.947938 C 603.161488 100.646566 599.219512 102.002945 594.012996 102.002945 L 581.713751 102.002945 C 576.570815 102.002945 572.642969 100.646566 569.923147 97.947938 C 567.217454 95.221052 565.86814 91.293206 565.86814 86.157335 Z M 584.878634 87.817485 L 591.271981 87.817485 C 594.210802 87.817485 595.673147 86.35514 595.673147 83.416319 L 595.673147 32.580379 C 595.673147 29.662752 594.210802 28.200407 591.271981 28.200407 L 584.878634 28.200407 C 581.961007 28.200407 580.505726 29.662752 580.505726 32.580379 L 580.505726 83.416319 C 580.505726 86.35514 581.961007 87.817485 584.878634 87.817485 Z M 584.878634 87.817485 " stroke="#000000" stroke-width="3.025" stroke-opacity="1" stroke-miterlimit="4"/><g fill="#ff9c8f" fill-opacity="1"><g transform="translate(15.035555, 73.467122)"><g><path d="M 24.265625 -48.65625 L 30.046875 -48.65625 C 30.984375 -48.65625 31.347656 -48.210938 31.140625 -47.328125 L 20.859375 -1.09375 C 20.703125 -0.363281 20.257812 0 19.53125 0 L 13.4375 0 C 12.75 0 12.304688 -0.363281 12.109375 -1.09375 L 1.890625 -47.328125 C 1.679688 -48.210938 2.046875 -48.65625 2.984375 -48.65625 L 8.765625 -48.65625 C 9.492188 -48.65625 9.9375 -48.289062 10.09375 -47.5625 L 16.484375 -14.96875 L 22.9375 -47.5625 C 23.132812 -48.289062 23.578125 -48.65625 24.265625 -48.65625 Z M 24.265625 -48.65625 "/></g></g></g><g fill="#ff9c8f" fill-opacity="1"><g transform="translate(50.191639, 73.467122)"><g><path d="M 27.3125 -47.6875 L 27.3125 -41.609375 C 27.3125 -40.921875 26.988281 -40.578125 26.34375 -40.578125 L 11.125 -40.578125 L 11.125 -28.40625 L 22.75 -28.40625 C 23.394531 -28.40625 23.71875 -28.0625 23.71875 -27.375 L 23.71875 -21.34375 C 23.71875 -20.65625 23.394531 -20.3125 22.75 -20.3125 L 11.125 -20.3125 L 11.125 -8.03125 L 26.34375 -8.03125 C 26.988281 -8.03125 27.3125 -7.707031 27.3125 -7.0625 L 27.3125 -0.96875 C 27.3125 -0.320312 26.988281 0 26.34375 0 L 3.953125 0 C 3.347656 0 3.046875 -0.320312 3.046875 -0.96875 L 3.046875 -47.6875 C 3.046875 -48.332031 3.347656 -48.65625 3.953125 -48.65625 L 26.34375 -48.65625 C 26.988281 -48.65625 27.3125 -48.332031 27.3125 -47.6875 Z M 27.3125 -47.6875 "/></g></g></g><g fill="#ff9c8f" fill-opacity="1"><g transform="translate(82.671482, 73.467122)"><g><path d="M 11.796875 -48.65625 L 18.609375 -48.65625 C 21.492188 -48.65625 23.675781 -47.914062 25.15625 -46.4375 C 26.632812 -44.957031 27.375 -42.78125 27.375 -39.90625 L 27.375 -33.453125 C 27.375 -32.804688 27.050781 -32.484375 26.40625 -32.484375 L 20.078125 -32.484375 C 19.421875 -32.484375 19.09375 -32.804688 19.09375 -33.453125 L 19.09375 -38.203125 C 19.09375 -39.828125 18.285156 -40.640625 16.671875 -40.640625 L 13.75 -40.640625 C 12.125 -40.640625 11.3125 -39.828125 11.3125 -38.203125 L 11.3125 -29.8125 L 25.796875 -25.0625 C 26.847656 -24.613281 27.375 -23.863281 27.375 -22.8125 L 27.375 -8.765625 C 27.375 -5.921875 26.632812 -3.75 25.15625 -2.25 C 23.675781 -0.75 21.492188 0 18.609375 0 L 11.796875 0 C 8.960938 0 6.796875 -0.75 5.296875 -2.25 C 3.796875 -3.75 3.046875 -5.921875 3.046875 -8.765625 L 3.046875 -15.140625 C 3.046875 -15.796875 3.367188 -16.125 4.015625 -16.125 L 10.34375 -16.125 C 10.988281 -16.125 11.3125 -15.796875 11.3125 -15.140625 L 11.3125 -10.46875 C 11.3125 -8.84375 12.125 -8.03125 13.75 -8.03125 L 16.671875 -8.03125 C 18.285156 -8.03125 19.09375 -8.84375 19.09375 -10.46875 L 19.09375 -18.546875 L 4.6875 -23.296875 C 3.59375 -23.660156 3.046875 -24.410156 3.046875 -25.546875 L 3.046875 -39.90625 C 3.046875 -42.78125 3.796875 -44.957031 5.296875 -46.4375 C 6.796875 -47.914062 8.960938 -48.65625 11.796875 -48.65625 Z M 11.796875 -48.65625 "/></g></g></g><g fill="#ff9c8f" fill-opacity="1"><g transform="translate(115.212153, 73.467122)"><g><path d="M 2.796875 -48.65625 L 25.1875 -48.65625 C 25.832031 -48.65625 26.15625 -48.332031 26.15625 -47.6875 L 26.15625 -41.609375 C 26.15625 -40.960938 25.832031 -40.640625 25.1875 -40.640625 L 18.125 -40.640625 L 18.125 -0.96875 C 18.125 -0.320312 17.800781 0 17.15625 0 L 10.828125 0 C 10.179688 0 9.859375 -0.320312 9.859375 -0.96875 L 9.859375 -40.640625 L 2.796875 -40.640625 C 2.148438 -40.640625 1.828125 -40.960938 1.828125 -41.609375 L 1.828125 -47.6875 C 1.828125 -48.332031 2.148438 -48.65625 2.796875 -48.65625 Z M 2.796875 -48.65625 "/></g></g></g><g fill="#ff9c8f" fill-opacity="1"><g transform="translate(145.31987, 73.467122)"><g><path d="M 4.015625 -48.65625 L 10.34375 -48.65625 C 10.988281 -48.65625 11.3125 -48.332031 11.3125 -47.6875 L 11.3125 -0.96875 C 11.3125 -0.320312 10.988281 0 10.34375 0 L 4.015625 0 C 3.367188 0 3.046875 -0.320312 3.046875 -0.96875 L 3.046875 -47.6875 C 3.046875 -48.332031 3.367188 -48.65625 4.015625 -48.65625 Z M 4.015625 -48.65625 "/></g></g></g><g fill="#ff9c8f" fill-opacity="1"><g transform="translate(161.803081, 73.467122)"><g><path d="M 27.4375 -39.90625 L 27.4375 -28.703125 C 27.4375 -27.566406 27.070312 -26.613281 26.34375 -25.84375 C 25.613281 -25.082031 24.695312 -24.597656 23.59375 -24.390625 L 23.59375 -24.265625 C 24.695312 -24.109375 25.613281 -23.632812 26.34375 -22.84375 C 27.070312 -22.050781 27.4375 -21.085938 27.4375 -19.953125 L 27.4375 -8.765625 C 27.4375 -5.921875 26.6875 -3.75 25.1875 -2.25 C 23.6875 -0.75 21.492188 0 18.609375 0 L 4.015625 0 C 3.367188 0 3.046875 -0.320312 3.046875 -0.96875 L 3.046875 -47.6875 C 3.046875 -48.332031 3.367188 -48.65625 4.015625 -48.65625 L 18.609375 -48.65625 C 21.492188 -48.65625 23.6875 -47.914062 25.1875 -46.4375 C 26.6875 -44.957031 27.4375 -42.78125 27.4375 -39.90625 Z M 19.34375 -30.71875 L 19.34375 -38.203125 C 19.34375 -39.828125 18.53125 -40.640625 16.90625 -40.640625 L 11.375 -40.640625 L 11.375 -28.34375 L 16.90625 -28.34375 C 18.53125 -28.34375 19.34375 -29.132812 19.34375 -30.71875 Z M 19.34375 -10.46875 L 19.34375 -17.890625 C 19.34375 -19.503906 18.53125 -20.3125 16.90625 -20.3125 L 11.375 -20.3125 L 11.375 -8.03125 L 16.90625 -8.03125 C 18.53125 -8.03125 19.34375 -8.84375 19.34375 -10.46875 Z M 19.34375 -10.46875 "/></g></g></g><g fill="#ff9c8f" fill-opacity="1"><g transform="translate(194.404576, 73.467122)"><g><path d="M 20.5625 -48.65625 L 26.15625 -48.65625 C 26.476562 -48.65625 26.757812 -48.535156 27 -48.296875 C 27.25 -48.054688 27.375 -47.773438 27.375 -47.453125 L 27.375 -8.765625 C 27.375 -5.921875 26.632812 -3.75 25.15625 -2.25 C 23.675781 -0.75 21.492188 0 18.609375 0 L 11.796875 0 C 8.960938 0 6.796875 -0.75 5.296875 -2.25 C 3.796875 -3.75 3.046875 -5.921875 3.046875 -8.765625 L 3.046875 -47.453125 C 3.046875 -47.773438 3.164062 -48.054688 3.40625 -48.296875 C 3.644531 -48.535156 3.929688 -48.65625 4.265625 -48.65625 L 10.09375 -48.65625 C 10.414062 -48.65625 10.695312 -48.535156 10.9375 -48.296875 C 11.1875 -48.054688 11.3125 -47.773438 11.3125 -47.453125 L 11.3125 -10.46875 C 11.3125 -8.84375 12.125 -8.03125 13.75 -8.03125 L 16.90625 -8.03125 C 18.53125 -8.03125 19.34375 -8.84375 19.34375 -10.46875 L 19.34375 -47.453125 C 19.34375 -47.773438 19.460938 -48.054688 19.703125 -48.296875 C 19.953125 -48.535156 20.238281 -48.65625 20.5625 -48.65625 Z M 20.5625 -48.65625 "/></g></g></g><g fill="#ff9c8f" fill-opacity="1"><g transform="translate(226.945239, 73.467122)"><g><path d="M 11.3125 -8.03125 L 11.3125 -47.6875 C 11.3125 -48.332031 10.988281 -48.65625 10.34375 -48.65625 L 4.015625 -48.65625 C 3.367188 -48.65625 3.046875 -48.332031 3.046875 -47.6875 L 3.046875 -0.96875 C 3.046875 -0.320312 3.367188 0 4.015625 0 L 25.796875 0 C 26.441406 0 26.765625 -0.320312 26.765625 -0.96875 L 26.765625 -7.0625 C 26.765625 -7.707031 26.441406 -8.03125 25.796875 -8.03125 Z M 11.3125 -8.03125 "/></g></g></g><g fill="#ff9c8f" fill-opacity="1"><g transform="translate(258.877661, 73.467122)"><g><path d="M 3.046875 -8.765625 L 3.046875 -39.90625 C 3.046875 -42.78125 3.796875 -44.957031 5.296875 -46.4375 C 6.796875 -47.914062 8.960938 -48.65625 11.796875 -48.65625 L 18.609375 -48.65625 C 21.492188 -48.65625 23.675781 -47.914062 25.15625 -46.4375 C 26.632812 -44.957031 27.375 -42.78125 27.375 -39.90625 L 27.375 -8.765625 C 27.375 -5.921875 26.632812 -3.75 25.15625 -2.25 C 23.675781 -0.75 21.492188 0 18.609375 0 L 11.796875 0 C 8.960938 0 6.796875 -0.75 5.296875 -2.25 C 3.796875 -3.75 3.046875 -5.921875 3.046875 -8.765625 Z M 13.5625 -7.84375 L 17.09375 -7.84375 C 18.71875 -7.84375 19.53125 -8.65625 19.53125 -10.28125 L 19.53125 -38.375 C 19.53125 -40 18.71875 -40.8125 17.09375 -40.8125 L 13.5625 -40.8125 C 11.9375 -40.8125 11.125 -40 11.125 -38.375 L 11.125 -10.28125 C 11.125 -8.65625 11.9375 -7.84375 13.5625 -7.84375 Z M 13.5625 -7.84375 "/></g></g></g><g fill="#ff9c8f" fill-opacity="1"><g transform="translate(291.418324, 73.467122)"><g><path d="M 11.796875 -48.65625 L 18.609375 -48.65625 C 21.492188 -48.65625 23.675781 -47.914062 25.15625 -46.4375 C 26.632812 -44.957031 27.375 -42.78125 27.375 -39.90625 L 27.375 -33.453125 C 27.375 -32.804688 27.050781 -32.484375 26.40625 -32.484375 L 20.078125 -32.484375 C 19.421875 -32.484375 19.09375 -32.804688 19.09375 -33.453125 L 19.09375 -38.203125 C 19.09375 -39.828125 18.285156 -40.640625 16.671875 -40.640625 L 13.75 -40.640625 C 12.125 -40.640625 11.3125 -39.828125 11.3125 -38.203125 L 11.3125 -29.8125 L 25.796875 -25.0625 C 26.847656 -24.613281 27.375 -23.863281 27.375 -22.8125 L 27.375 -8.765625 C 27.375 -5.921875 26.632812 -3.75 25.15625 -2.25 C 23.675781 -0.75 21.492188 0 18.609375 0 L 11.796875 0 C 8.960938 0 6.796875 -0.75 5.296875 -2.25 C 3.796875 -3.75 3.046875 -5.921875 3.046875 -8.765625 L 3.046875 -15.140625 C 3.046875 -15.796875 3.367188 -16.125 4.015625 -16.125 L 10.34375 -16.125 C 10.988281 -16.125 11.3125 -15.796875 11.3125 -15.140625 L 11.3125 -10.46875 C 11.3125 -8.84375 12.125 -8.03125 13.75 -8.03125 L 16.671875 -8.03125 C 18.285156 -8.03125 19.09375 -8.84375 19.09375 -10.46875 L 19.09375 -18.546875 L 4.6875 -23.296875 C 3.59375 -23.660156 3.046875 -24.410156 3.046875 -25.546875 L 3.046875 -39.90625 C 3.046875 -42.78125 3.796875 -44.957031 5.296875 -46.4375 C 6.796875 -47.914062 8.960938 -48.65625 11.796875 -48.65625 Z M 11.796875 -48.65625 "/></g></g></g><g fill="#ff9c8f" fill-opacity="1"><g transform="translate(323.958986, 73.467122)"><g><path d="M 3.046875 -8.765625 L 3.046875 -39.90625 C 3.046875 -42.78125 3.796875 -44.957031 5.296875 -46.4375 C 6.796875 -47.914062 8.960938 -48.65625 11.796875 -48.65625 L 18.609375 -48.65625 C 21.492188 -48.65625 23.675781 -47.914062 25.15625 -46.4375 C 26.632812 -44.957031 27.375 -42.78125 27.375 -39.90625 L 27.375 -8.765625 C 27.375 -5.921875 26.632812 -3.75 25.15625 -2.25 C 23.675781 -0.75 21.492188 0 18.609375 0 L 11.796875 0 C 8.960938 0 6.796875 -0.75 5.296875 -2.25 C 3.796875 -3.75 3.046875 -5.921875 3.046875 -8.765625 Z M 13.5625 -7.84375 L 17.09375 -7.84375 C 18.71875 -7.84375 19.53125 -8.65625 19.53125 -10.28125 L 19.53125 -38.375 C 19.53125 -40 18.71875 -40.8125 17.09375 -40.8125 L 13.5625 -40.8125 C 11.9375 -40.8125 11.125 -40 11.125 -38.375 L 11.125 -10.28125 C 11.125 -8.65625 11.9375 -7.84375 13.5625 -7.84375 Z M 13.5625 -7.84375 "/></g></g></g></svg>